<svg id="Grupo_4" data-name="Grupo 4" xmlns="http://www.w3.org/2000/svg" xmlns:xlink="http://www.w3.org/1999/xlink" width="199.999" height="47.115" viewBox="0 0 199.999 47.115">
    <defs>
        <clipPath id="clip-path">
            <rect id="Retângulo_9" data-name="Retângulo 9" width="199.999" height="47.115" fill="none"/>
        </clipPath>
    </defs>
    <g id="Grupo_3" data-name="Grupo 3" clip-path="url(#clip-path)">
        <path id="Caminho_14" data-name="Caminho 14" d="M42.84,0H4.276A4.276,4.276,0,0,0,0,4.276V42.84a4.276,4.276,0,0,0,4.276,4.276H42.84a4.276,4.276,0,0,0,4.275-4.276V4.276A4.276,4.276,0,0,0,42.84,0M7.869,9.213l7.8,7.8,7.542-7.542-1-1h5.276v5.276l-1-1L15.67,23.558l-7.8-7.8ZM39.2,37.845l-7.8-7.8-9.2,9.2H15.655L31.4,23.5l7.8,7.8Zm0-11.058-7.8-7.8L23.558,26.83l-7.842,7.842-7.8-7.8V20.328l7.8,7.8,7.842-7.842L31.4,12.443l7.8,7.8Z" fill="#fff"/>
        <path id="Caminho_15" data-name="Caminho 15" d="M347.3,53.5,341.89,71.484h-3.68L343.615,53.5Z" transform="translate(-210.989 -33.374)" fill="#fff"/>
        <path id="Caminho_16" data-name="Caminho 16" d="M360.189,68.378c.337-1.148.7-2.3.984-3.446h3.472a17.4,17.4,0,0,1-.412,1.7,5.348,5.348,0,0,1,4.246-1.958c2.662,0,4.033,1.619,2.817,5.612l-2.447,8.171h-3.524l2.45-8.2c.474-1.514.231-2.61-1.282-2.61-1.723,0-2.936,1.3-3.706,3.811l-2.082,7h-3.55Z" transform="translate(-222.808 -40.344)" fill="#fff"/>
        <path id="Caminho_17" data-name="Caminho 17" d="M406.242,65.365c-.059,5.665-.1,8.484-.253,10.207h.026c1.014-2.01,2.726-4.829,5.865-10.207h3.707L407.08,78.888h-4.073l-.263-13.523Z" transform="translate(-251.248 -40.777)" fill="#fff"/>
        <path id="Caminho_18" data-name="Caminho 18" d="M437.909,72.5a4.487,4.487,0,0,0-.176.809c-.127,1.435.312,2.662,1.9,2.662a2.858,2.858,0,0,0,2.677-1.644h3.707a7.165,7.165,0,0,1-6.915,4.385c-3.628,0-5.2-2.271-4.913-5.534.317-3.577,2.686-8.51,8.064-8.51,3.968,0,5.162,2.427,4.917,5.195a9.768,9.768,0,0,1-.6,2.636Zm5.8-2.376a2.749,2.749,0,0,0,.105-.6c.1-1.174-.328-2.193-1.894-2.193-1.619,0-2.7,1.044-3.328,2.793Z" transform="translate(-270.847 -40.345)" fill="#fff"/>
        <path id="Caminho_19" data-name="Caminho 19" d="M473.982,74.278c0,1.175.7,1.8,2.19,1.8,1.384,0,1.987-.627,2.068-1.541.076-.861-.591-1.279-2.242-1.8-3.071-.992-3.939-2.088-3.791-3.759.216-2.428,2.287-4.307,5.89-4.307,3.759,0,5.259,1.932,4.991,4.072h-3.6c.012-.73-.291-1.435-1.8-1.435-.887,0-1.8.287-1.884,1.227-.065.731.643.992,2.239,1.54,3.071.992,4.058,2.219,3.892,4.1-.275,3.106-3.2,4.542-6.38,4.542-3.6,0-5.547-1.619-5.141-4.438Z" transform="translate(-293.425 -40.345)" fill="#fff"/>
        <path id="Caminho_20" data-name="Caminho 20" d="M508.126,59.347h2.01l1.1-3.628h3.524l-1.078,3.628h2.532l-.842,2.715h-2.531l-2.04,6.813c-.231.835-.227,1.384.843,1.384a8.415,8.415,0,0,0,1.156-.078l-.75,2.558A8.005,8.005,0,0,1,509.63,73c-2.819,0-3.122-1.592-2.415-3.968l2.08-6.97h-2.01Z" transform="translate(-316.22 -34.76)" fill="#fff"/>
        <path id="Caminho_21" data-name="Caminho 21" d="M142.465,24.925h2.819V53.386h-2.819Zm1.938,0h16.344v2.623H144.4Zm0,13.017h14.191v2.623H144.4Zm0,12.821h16.344v2.623H144.4Z" transform="translate(-88.875 -15.549)" fill="#fff"/>
        <path id="Caminho_22" data-name="Caminho 22" d="M199.764,24.925h2.819V53.386h-2.819Zm2.349,25.838h7.81q3.621,0,5.275-1.36a4.678,4.678,0,0,0,1.654-3.827v-.059a6.327,6.327,0,0,0-.617-2.9,4.183,4.183,0,0,0-1.938-1.87,7.651,7.651,0,0,0-3.4-.656h-8.789V37.472H210.9a6.161,6.161,0,0,0,4.179-1.233,4.622,4.622,0,0,0,1.4-3.661,4.6,4.6,0,0,0-1.526-3.777,7.141,7.141,0,0,0-4.6-1.253h-8.24V24.925h8.867a10.18,10.18,0,0,1,4.62.94,6.246,6.246,0,0,1,2.779,2.662,8.61,8.61,0,0,1,.92,4.11,6.67,6.67,0,0,1-.568,2.731A5.749,5.749,0,0,1,217,37.57a6.417,6.417,0,0,1-2.887,1.233,6.269,6.269,0,0,1,2.975,1.223,6.379,6.379,0,0,1,1.918,2.418,7.413,7.413,0,0,1,.666,3.132v.058a8,8,0,0,1-1.018,4.072,6.848,6.848,0,0,1-2.917,2.721,9.688,9.688,0,0,1-4.424.96h-9.2Z" transform="translate(-124.621 -15.549)" fill="#fff"/>
        <path id="Caminho_23" data-name="Caminho 23" d="M269.761,24.925h1.958l6.224,24.468,6.01-24.468h3.171l-7.731,28.461h-2.9l-5.637-22.432-5.872,22.432h-2.9l-7.732-28.461h3.171l6.009,24.468Z" transform="translate(-158.678 -15.549)" fill="#fff"/>
    </g>
</svg>
