<svg id="Grupo_2" data-name="Grupo 2" xmlns="http://www.w3.org/2000/svg" xmlns:xlink="http://www.w3.org/1999/xlink" width="263.182" height="62" viewBox="0 0 263.182 62">
    <defs>
        <clipPath id="clip-path">
            <rect id="Retângulo_2" data-name="Retângulo 2" width="263.182" height="62" fill="none"/>
        </clipPath>
    </defs>
    <g id="Grupo_1" data-name="Grupo 1" clip-path="url(#clip-path)">
        <path id="Caminho_1" data-name="Caminho 1" d="M56.374,0H5.627A5.626,5.626,0,0,0,0,5.627V56.373A5.626,5.626,0,0,0,5.627,62H56.374A5.626,5.626,0,0,0,62,56.373V5.627A5.626,5.626,0,0,0,56.374,0M10.355,12.124,20.62,22.388l9.924-9.924-1.317-1.316h6.943v6.943L34.85,16.77,20.62,31,10.355,20.735ZM51.584,49.8,41.32,39.537,29.213,51.645H20.6L41.32,30.925,51.584,41.19Zm0-14.551L41.32,24.986,31,35.306,20.68,45.626,10.416,35.361V26.749L20.68,37.014,31,26.694l10.32-10.32L51.584,26.639Z" fill="#fff"/>
        <path id="Caminho_2" data-name="Caminho 2" d="M45.415,29.139l-4.306-4.306-9.924,9.924L20.921,24.492V33.1L31.185,43.369Z" transform="translate(-10.565 -12.369)" fill="#cc883f"/>
        <path id="Caminho_3" data-name="Caminho 3" d="M65.339,27.473l-.67.67,1.321,1.321V22.52H59.046l1.317,1.317.63-.63Z" transform="translate(-29.818 -11.373)" fill="#cc883f"/>
        <path id="Caminho_4" data-name="Caminho 4" d="M66.682,28.174l-4.347-4.265-.63.63,4.306,4.306Z" transform="translate(-31.162 -12.074)" fill="#cc883f"/>
        <path id="Caminho_5" data-name="Caminho 5" d="M350.166,53.5l-7.114,23.669h-4.843L345.323,53.5Z" transform="translate(-170.798 -27.017)" fill="#cc883f"/>
        <path id="Caminho_6" data-name="Caminho 6" d="M361.147,69.549c.443-1.511.921-3.022,1.295-4.534h4.569a22.9,22.9,0,0,1-.542,2.233,7.037,7.037,0,0,1,5.588-2.576c3.5,0,5.307,2.13,3.707,7.385l-3.22,10.753h-4.638l3.223-10.787c.624-1.992.3-3.435-1.687-3.435-2.267,0-3.863,1.717-4.876,5.015l-2.74,9.207h-4.671Z" transform="translate(-180.365 -32.659)" fill="#cc883f"/>
        <path id="Caminho_7" data-name="Caminho 7" d="M407.347,65.365c-.077,7.455-.132,11.165-.333,13.432h.034c1.334-2.645,3.587-6.355,7.718-13.432h4.878l-11.2,17.795H403.09l-.346-17.795Z" transform="translate(-203.388 -33.01)" fill="#cc883f"/>
        <path id="Caminho_8" data-name="Caminho 8" d="M439.093,74.977a5.905,5.905,0,0,0-.232,1.065c-.167,1.888.41,3.5,2.507,3.5a3.761,3.761,0,0,0,3.523-2.164h4.878a9.428,9.428,0,0,1-9.1,5.771c-4.775,0-6.846-2.988-6.465-7.282.417-4.707,3.535-11.2,10.611-11.2,5.221,0,6.793,3.194,6.47,6.836a12.855,12.855,0,0,1-.789,3.469Zm7.628-3.126a3.62,3.62,0,0,0,.139-.79c.137-1.545-.431-2.885-2.492-2.885-2.13,0-3.557,1.374-4.379,3.675Z" transform="translate(-219.254 -32.66)" fill="#cc883f"/>
        <path id="Caminho_9" data-name="Caminho 9" d="M475.129,77.313c0,1.546.923,2.371,2.881,2.371,1.821,0,2.615-.825,2.721-2.027.1-1.133-.778-1.682-2.95-2.37-4.041-1.305-5.184-2.748-4.989-4.947.284-3.195,3.01-5.668,7.751-5.668,4.947,0,6.92,2.542,6.567,5.358H482.37c.016-.961-.383-1.889-2.375-1.889-1.168,0-2.369.378-2.479,1.614-.085.962.846,1.305,2.946,2.027,4.041,1.305,5.34,2.92,5.121,5.393-.362,4.088-4.205,5.977-8.4,5.977-4.741,0-7.3-2.13-6.765-5.84Z" transform="translate(-237.531 -32.66)" fill="#cc883f"/>
        <path id="Caminho_10" data-name="Caminho 10" d="M508.516,60.494h2.645l1.454-4.775h4.637l-1.419,4.775h3.332l-1.108,3.573h-3.331l-2.684,8.965c-.3,1.1-.3,1.821,1.109,1.821a11.072,11.072,0,0,0,1.521-.1l-.987,3.366a10.534,10.534,0,0,1-3.19.344c-3.71,0-4.108-2.1-3.178-5.222l2.737-9.172H507.41Z" transform="translate(-255.983 -28.138)" fill="#cc883f"/>
        <path id="Caminho_11" data-name="Caminho 11" d="M142.465,24.925h3.709V62.377h-3.709Zm2.55,0h21.507v3.452H145.015Zm0,17.129H163.69v3.452H145.015Zm0,16.871h21.507v3.452H145.015Z" transform="translate(-71.946 -12.587)" fill="#fff"/>
        <path id="Caminho_12" data-name="Caminho 12" d="M199.764,24.925h3.709V62.377h-3.709Zm3.091,34h10.277q4.765,0,6.942-1.79a6.156,6.156,0,0,0,2.177-5.036v-.078a8.325,8.325,0,0,0-.812-3.812,5.5,5.5,0,0,0-2.55-2.46,10.068,10.068,0,0,0-4.469-.863H202.855V41.436H214.42a8.108,8.108,0,0,0,5.5-1.623A6.083,6.083,0,0,0,221.761,35a6.054,6.054,0,0,0-2.009-4.971q-2.009-1.648-6.053-1.649H202.855V24.925h11.668a13.4,13.4,0,0,1,6.079,1.237,8.218,8.218,0,0,1,3.658,3.5,11.331,11.331,0,0,1,1.211,5.408,8.777,8.777,0,0,1-.747,3.594,7.564,7.564,0,0,1-2.28,2.9,8.444,8.444,0,0,1-3.8,1.623,8.25,8.25,0,0,1,3.915,1.61,8.394,8.394,0,0,1,2.524,3.181,9.755,9.755,0,0,1,.876,4.121v.077a10.524,10.524,0,0,1-1.339,5.358,9.012,9.012,0,0,1-3.838,3.58,12.748,12.748,0,0,1-5.821,1.263H202.855Z" transform="translate(-100.882 -12.587)" fill="#fff"/>
        <path id="Caminho_13" data-name="Caminho 13" d="M274.628,24.925H277.2l8.191,32.2,7.908-32.2h4.172L287.3,62.377h-3.813L276.07,32.858l-7.727,29.518h-3.812L254.357,24.925h4.173l7.907,32.2Z" transform="translate(-128.452 -12.587)" fill="#fff"/>
    </g>
</svg>
