<svg xmlns="http://www.w3.org/2000/svg" width="25.566" height="26.22" viewBox="0 0 25.566 26.22">
    <path id="Caminho_25" data-name="Caminho 25" d="M34.2,1.742a1.665,1.665,0,1,0,1.668,1.664A1.666,1.666,0,0,0,34.2,1.742" transform="translate(-14.506 1.766)" fill="#fff"/>
    <path id="Caminho_26" data-name="Caminho 26" d="M41.713,0H31.025a7.452,7.452,0,0,0-7.438,7.426V18.8a7.45,7.45,0,0,0,7.438,7.424H41.713a7.451,7.451,0,0,0,7.44-7.424V7.426A7.454,7.454,0,0,0,41.713,0m5.472,18.8a5.488,5.488,0,0,1-5.472,5.462H31.025A5.487,5.487,0,0,1,25.553,18.8V7.426a5.479,5.479,0,0,1,5.472-5.46H41.713a5.483,5.483,0,0,1,5.472,5.46Z" transform="translate(-23.587)" fill="#fff"/>
    <path id="Caminho_27" data-name="Caminho 27" d="M33.486,3.022a7.029,7.029,0,1,0,7.037,7.029,7.031,7.031,0,0,0-7.037-7.029Zm-.034,11.635a4.84,4.84,0,0,1-2.572-.79,4.465,4.465,0,0,1-2.024-3.818,4.6,4.6,0,1,1,4.6,4.608" transform="translate(-20.665 3.064)" fill="#fff"/>
</svg>
