<svg xmlns="http://www.w3.org/2000/svg" width="24.947" height="24.95" viewBox="0 0 24.947 24.95">
    <path id="Caminho_28" data-name="Caminho 28" d="M71.218.8H49.954a1.812,1.812,0,0,0-1.841,1.786V23.954a1.817,1.817,0,0,0,1.841,1.79H71.218a1.817,1.817,0,0,0,1.843-1.79V2.584A1.816,1.816,0,0,0,71.22.8ZM55.674,21.678H51.9V10.414h3.77ZM53.79,8.875h-.026a1.943,1.943,0,0,1-2.078-1.8c0-.048,0-.1,0-.145a2.135,2.135,0,0,1,4.233-.153c0,.052,0,.1.006.153a1.955,1.955,0,0,1-2.129,1.946Zm15.472,12.8H65.494V15.652c0-1.515-.546-2.548-1.909-2.548a2.062,2.062,0,0,0-1.933,1.368,2.533,2.533,0,0,0-.123.918v6.29H57.76s.05-10.207,0-11.266h3.768v1.6a3.742,3.742,0,0,1,3.4-1.863c2.479,0,4.34,1.607,4.34,5.069ZM61.5,12.047l.024-.034v.034Z" transform="translate(-48.113 -0.795)" fill="#fff"/>
</svg>
